<?xml version="1.0" encoding="iso-8859-1"?>
<!-- Generator: Adobe Illustrator 18.0.0, SVG Export Plug-In . SVG Version: 6.00 Build 0)  -->
<!DOCTYPE svg PUBLIC "-//W3C//DTD SVG 1.1//EN" "http://www.w3.org/Graphics/SVG/1.1/DTD/svg11.dtd">
<svg xmlns="http://www.w3.org/2000/svg" xmlns:xlink="http://www.w3.org/1999/xlink" version="1.1" id="Capa_1" x="0px" y="0px" viewBox="0 0 476.715 476.715" style="enable-background:new 0 0 476.715 476.715;" xml:space="preserve" width="512px" height="512px">
<g>
	<path d="M458.051,56.855h-115.82l10.993-4.672c8.324-3.538,14.323-10.951,16.046-19.829s-1.065-17.997-7.461-24.393   c-6.396-6.396-15.518-9.185-24.393-7.461c-8.879,1.724-16.292,7.723-19.829,16.046l-12.167,28.629l-12.167-28.629   c-3.537-8.324-10.95-14.322-19.829-16.046s-17.998,1.065-24.393,7.461c-6.396,6.395-9.185,15.514-7.461,24.392   c1.724,8.879,7.722,16.292,16.046,19.83l10.993,4.672h-74.37c-6.253-5.268-14.56-7.47-22.669-5.894   c-8.879,1.724-16.292,7.722-19.829,16.046l-12.167,28.629l-12.167-28.629c-3.538-8.324-10.95-14.322-19.829-16.046   c-8.878-1.725-17.998,1.065-24.393,7.46C76.789,64.817,74,73.936,75.724,82.814c1.724,8.879,7.723,16.292,16.046,19.829   l10.982,4.667H18.663c-4.142,0-7.5,3.358-7.5,7.5v37.394c0,4.142,3.358,7.5,7.5,7.5h1.648v255.381c0,4.142,3.358,7.5,7.5,7.5   h49.242v46.63c0,4.142,3.358,7.5,7.5,7.5h317.233c4.142,0,7.5-3.358,7.5-7.5v-89.222h37.928c4.142,0,7.5-3.358,7.5-7.5V140.595   h3.337c4.142,0,7.5-3.358,7.5-7.5v-68.74C465.551,60.213,462.194,56.855,458.051,56.855z M450.551,125.595H267.984v-10.784   c0-4.142-3.358-7.5-7.5-7.5h-84.089l10.982-4.667c8.324-3.538,14.322-10.95,16.046-19.829c0.715-3.683,0.643-7.405-0.131-10.959   h247.259V125.595z M403.663,341.553H82.677v-13.594h320.986V341.553z M258.836,302.771l10.306-24.249   c1.608-3.785,4.846-6.404,8.883-7.188c0.803-0.156,1.604-0.232,2.394-0.232c3.185,0,6.205,1.245,8.534,3.575   c2.908,2.908,4.126,6.891,3.342,10.928s-3.404,7.274-7.188,8.883l-26.27,11.165V302.771z M331.393,22.414   c1.608-3.785,4.846-6.405,8.883-7.188c0.803-0.156,1.603-0.232,2.394-0.232c3.185,0,6.205,1.245,8.534,3.575   c2.908,2.908,4.126,6.891,3.342,10.927s-3.404,7.274-7.188,8.883l-27.764,11.799L331.393,22.414z M256.296,29.495   c-0.784-4.037,0.435-8.02,3.342-10.927c2.33-2.33,5.349-3.575,8.534-3.575c0.79,0,1.591,0.077,2.394,0.232   c4.037,0.784,7.274,3.404,8.883,7.188l11.8,27.764l-27.764-11.8C259.699,36.769,257.079,33.532,256.296,29.495z M165.546,72.874   c1.608-3.785,4.846-6.404,8.883-7.188c0.803-0.156,1.604-0.232,2.394-0.232c3.185,0,6.205,1.245,8.534,3.575   c2.908,2.908,4.126,6.891,3.342,10.928c-0.784,4.037-3.404,7.274-7.188,8.883l-27.764,11.799L165.546,72.874z M90.449,79.956   c-0.784-4.037,0.435-8.02,3.342-10.928c2.33-2.33,5.349-3.575,8.534-3.575c0.79,0,1.591,0.077,2.394,0.232   c4.037,0.784,7.274,3.404,8.883,7.188l11.8,27.764l-27.764-11.8C93.853,87.23,91.233,83.992,90.449,79.956z M26.163,122.311   h226.821v22.394H26.163V122.311z M35.311,407.585V159.704h208.525v140.012l-0.667,1.568l-12.167-28.629   c-3.538-8.324-10.95-14.322-19.829-16.046c-8.877-1.724-17.997,1.065-24.393,7.46s-9.185,15.514-7.46,24.393   c1.724,8.879,7.722,16.292,16.046,19.829l10.982,4.667H75.177c-4.142,0-7.5,3.358-7.5,7.5v28.594c0,4.142,3.358,7.5,7.5,7.5h1.876   v51.032H35.311z M228.997,306.286l-27.764-11.799c-3.785-1.608-6.404-4.846-7.188-8.883c-0.784-4.037,0.435-8.02,3.342-10.928   c2.33-2.33,5.349-3.575,8.534-3.575c0.79,0,1.591,0.077,2.394,0.232c4.037,0.784,7.274,3.404,8.883,7.188L228.997,306.286z    M92.053,461.715V356.553h302.233v105.162H92.053z M439.715,364.993h-30.428v-8.439h1.876c4.142,0,7.5-3.358,7.5-7.5v-28.594   c0-4.142-3.358-7.5-7.5-7.5H279.991l10.982-4.667c8.324-3.537,14.322-10.95,16.046-19.829c1.724-8.878-1.065-17.998-7.461-24.393   s-15.517-9.187-24.393-7.46c-6.575,1.276-12.341,4.901-16.33,10.075v-106.98h1.648c4.142,0,7.5-3.358,7.5-7.5v-11.609h171.73   V364.993z" fill="#FFFFFF"/>
	<circle cx="411.481" cy="163.085" r="9" fill="#FFFFFF"/>
	<circle cx="356.481" cy="222.085" r="9" fill="#FFFFFF"/>
	<circle cx="428.481" cy="103.085" r="9" fill="#FFFFFF"/>
	<circle cx="362.481" cy="91.085" r="9" fill="#FFFFFF"/>
	<circle cx="238.481" cy="87.085" r="9" fill="#FFFFFF"/>
	<circle cx="306.481" cy="106.085" r="9" fill="#FFFFFF"/>
	<circle cx="335.481" cy="167.085" r="9" fill="#FFFFFF"/>
	<circle cx="404.481" cy="236.085" r="9" fill="#FFFFFF"/>
	<circle cx="346.481" cy="282.085" r="9" fill="#FFFFFF"/>
	<circle cx="291.481" cy="209.085" r="9" fill="#FFFFFF"/>
	<circle cx="419.481" cy="298.085" r="9" fill="#FFFFFF"/>
	<path d="M89.873,192.873c0-12.407-10.093-22.5-22.5-22.5s-22.5,10.093-22.5,22.5s10.093,22.5,22.5,22.5   S89.873,205.28,89.873,192.873z M59.873,192.873c0-4.136,3.364-7.5,7.5-7.5s7.5,3.364,7.5,7.5s-3.364,7.5-7.5,7.5   S59.873,197.009,59.873,192.873z" fill="#FFFFFF"/>
	<path d="M207.481,212.585c12.407,0,22.5-10.093,22.5-22.5s-10.093-22.5-22.5-22.5s-22.5,10.093-22.5,22.5   S195.074,212.585,207.481,212.585z M207.481,182.585c4.136,0,7.5,3.364,7.5,7.5s-3.364,7.5-7.5,7.5s-7.5-3.364-7.5-7.5   S203.345,182.585,207.481,182.585z" fill="#FFFFFF"/>
	<path d="M144.482,258.585c12.407,0,22.5-10.093,22.5-22.5s-10.093-22.5-22.5-22.5s-22.5,10.093-22.5,22.5   S132.075,258.585,144.482,258.585z M144.482,228.585c4.136,0,7.5,3.364,7.5,7.5s-3.364,7.5-7.5,7.5s-7.5-3.364-7.5-7.5   S140.346,228.585,144.482,228.585z" fill="#FFFFFF"/>
	<path d="M104.981,285.085c0-12.407-10.093-22.5-22.5-22.5s-22.5,10.093-22.5,22.5s10.093,22.5,22.5,22.5   S104.981,297.492,104.981,285.085z M74.981,285.085c0-4.136,3.364-7.5,7.5-7.5s7.5,3.364,7.5,7.5s-3.364,7.5-7.5,7.5   S74.981,289.221,74.981,285.085z" fill="#FFFFFF"/>
	<path d="M243.172,376.664c-4.455-3.317-9.834-5.11-15.489-5.11c-6.946,0-13.476,2.705-18.387,7.616   c-4.912,4.912-7.616,11.441-7.616,18.387s2.705,13.476,7.616,18.387l28.57,28.57c1.464,1.465,3.384,2.197,5.303,2.197   c1.919,0,3.839-0.732,5.303-2.197l28.571-28.57c10.138-10.139,10.138-26.636,0-36.774   C267.824,369.95,253.346,369.114,243.172,376.664z M266.437,405.337l-23.268,23.267l-23.267-23.267   c-2.078-2.079-3.223-4.842-3.223-7.781s1.145-5.702,3.223-7.78c2.078-2.078,4.841-3.223,7.78-3.223s5.702,1.145,7.781,3.223   l2.403,2.403c2.929,2.929,7.677,2.929,10.605,0l2.404-2.403c4.29-4.29,11.27-4.291,15.561,0   C270.727,394.066,270.727,401.046,266.437,405.337z" fill="#FFFFFF"/>
</g>
<g>
</g>
<g>
</g>
<g>
</g>
<g>
</g>
<g>
</g>
<g>
</g>
<g>
</g>
<g>
</g>
<g>
</g>
<g>
</g>
<g>
</g>
<g>
</g>
<g>
</g>
<g>
</g>
<g>
</g>
</svg>
