<?xml version="1.0" encoding="iso-8859-1"?>
<!-- Generator: Adobe Illustrator 19.0.0, SVG Export Plug-In . SVG Version: 6.00 Build 0)  -->
<svg xmlns="http://www.w3.org/2000/svg" xmlns:xlink="http://www.w3.org/1999/xlink" version="1.1" id="Layer_1" x="0px" y="0px" viewBox="0 0 512.008 512.008" style="enable-background:new 0 0 512.008 512.008;" xml:space="preserve" width="512px" height="512px">
<g>
	<g>
		<path d="M133.162,278.149c0.185-0.147,0.387-0.27,0.572-0.416c0.133-0.104,0.254-0.223,0.389-0.326    C133.797,277.658,133.479,277.901,133.162,278.149z" fill="#04c4d9"/>
	</g>
</g>
<g>
	<g>
		<path d="M134.366,404.366L134.366,404.366c-0.174-0.024-0.35-0.047-0.524-0.07C134.018,404.32,134.192,404.344,134.366,404.366z" fill="#04c4d9"/>
	</g>
</g>
<g>
	<g>
		<path d="M108.135,491.088c-0.008-0.059-0.017-0.12-0.025-0.179c0.013,0.123,0.029,0.248,0.046,0.372    C108.15,491.217,108.142,491.153,108.135,491.088z" fill="#04c4d9"/>
	</g>
</g>
<g>
	<g>
		<path d="M474.877,363.423c-0.857-14.492-4.105-28.925-9.792-42.298c-2.392-5.64-5.2-10.995-8.388-16.23    c-3.082-5.021-6.21-10.066-9.685-14.825c-1.999-2.725-4.057-5.389-6.187-8.008c-1.999-2.475-4.307-4.724-6.532-7.009    c-1.963-2.011-3.927-4.034-5.926-6.021c-1.072-1.067-2.218-2.042-3.394-2.981c0.435-0.664,0.89-1.318,1.276-2.008    c2.475-4.414,3.665-9.543,4.296-14.516c0.44-3.581,0.369-7.068,0.166-10.648c-0.425-7.385-1.398-14.695-2.432-22.011    c-0.339-3.516-0.529-7.002-0.459-10.544c0.095-4.069,0.452-8.126,0.416-12.195c-0.047-5.437-1.107-10.828-2.749-15.99    c-0.726-2.285-1.63-4.522-2.487-6.758c-0.618-1.631-1.32-3.224-1.916-4.854c-1.171-3.176-2.107-6.341-2.677-9.686    c-0.4-3.74-0.46-7.508-0.091-11.261c0.54-3.286,1.33-6.526,2.031-9.775c0.44-2.07,0.762-4.164,1.012-6.258    c0.452-3.593,0.892-7.151,0.619-10.78c-0.179-2.475-0.655-4.938-1.476-7.282c-0.975-2.808-2.498-5.223-4.379-7.508    c-2.653-3.224-5.936-5.77-9.328-8.163c-2.969-2.091-6.054-4.016-8.984-6.147c-1.056-0.93-2.021-1.923-2.947-2.979    c-3.457-4.857-5.819-10.348-8.343-15.728c-1.903-4.069-3.879-8.103-5.865-12.124c-3.915-7.901-8.912-15.468-15.634-21.25    c-4.57-3.939-9.781-6.925-15.48-8.852c-3.273-1.113-6.673-1.638-9.928-2.781c-2.579-1.279-4.936-2.896-7.232-4.63    c-5.465-4.266-10.828-8.649-16.489-12.673c-2.546-1.809-5.211-3.391-8.055-4.688c-2.344-1.071-4.712-1.94-7.199-2.571    c-2.867-0.726-5.889-0.999-8.829-1.249C290.714,0.042,289.621,0,288.53,0c-2.057,0-4.107,0.148-6.168,0.343    c-3.629,0.333-7.282,1.071-10.816,1.928c-3.035,0.738-6.056,1.488-9.031,2.427c-3.522,1.107-6.913,2.404-10.281,3.927    c-3.367,1.51-6.271,3.736-9.186,5.985c0.523-0.404,1.036-0.797,1.547-1.202c-0.647,0.501-1.294,1.002-1.942,1.507    c-1.933,1.441-3.977,2.727-6.181,3.73c-1.74,0.706-3.5,1.383-5.351,1.737c-0.391,0.043-0.782,0.087-1.169,0.139    c-3.148-1.427-6.493-2.318-9.903-2.948c-4.676-0.868-9.448-1.202-14.194-1.107c-5.831,0.13-11.601,1.463-17.312,2.618    c-4.616,0.928-9.091,2.642-13.409,4.462c-4.712,1.999-9.209,4.391-13.433,7.282c-8.067,5.545-14.754,12.635-20.096,20.799    c-2.772,4.224-5.389,8.602-7.711,13.089c-4.557,8.805-7.341,18.681-8.245,28.532c-0.667,7.234,1.131,14.468,2.737,21.477    c0.807,3.528,1.67,7.006,2.25,10.568c0.229,2.167,0.314,4.307,0.147,6.47c-0.256,1.24-0.593,2.434-1.016,3.622    c-1.138,2.292-2.514,4.411-4.018,6.487c-6.72,8.464-14.002,16.554-18.959,26.228c-2.534,4.973-4.605,10.304-5.735,15.777    c-0.582,2.82-0.821,5.735-0.868,8.615c-0.036,2.998,0.428,5.985,0.892,8.923c0.724,4.603,2.214,9.056,3.02,13.655    c0.047,0.658,0.066,1.303,0.045,1.956c-0.101,0.446-0.221,0.881-0.363,1.32c-0.55,1.089-1.176,2.109-1.877,3.113    c-3.241,3.888-7.042,7.21-10.703,10.702c-3.045,2.903-5.782,5.961-8.317,9.316c-1.547,2.035-2.713,4.296-3.771,6.592    c-1.273,2.749-2.261,5.545-2.927,8.483c-1.154,5.093-1.225,10.47,0.286,15.48c1.177,3.912,3.641,7.241,6.788,9.755    c-2.789,2.17-5.317,4.69-7.866,7.137c-2.427,2.32-4.746,4.723-7.068,7.139c-2.212,2.285-4.296,4.7-6.378,7.116    c-3.117,3.617-6.139,7.413-8.519,11.565c-1.784,3.13-3.26,6.579-4.509,9.959c-1.107,3.022-2.284,6.044-3.164,9.138    c-1.821,6.366-3.534,12.767-5.188,19.18c-3.13,12.16-4.14,25.01-3.38,37.527c0.405,6.603,1.166,13.195,2.678,19.644    c0.75,3.177,1.689,6.271,2.713,9.365c0.44,1.32,1.048,2.594,1.571,3.879c0.726,1.808,1.559,3.629,2.51,5.33    c2.26,4.057,4.783,7.96,7.781,11.53c2.737,3.26,5.89,6.032,9.091,8.817c6.223,5.425,13.101,10.22,20.406,14.088    c1.082,0.571,2.255,0.827,3.409,0.82c0.193,1.656,0.428,3.312,0.74,4.969c0.262,1.381,0.714,2.737,1.119,4.081    c1.131,3.653,3.165,6.984,5.949,9.602c2.034,1.916,4.522,3.485,7.009,4.759c1.863,0.96,3.786,1.643,5.762,2.156    c0.02,0.136,0.039,0.273,0.059,0.409c0.036,0.271,0.071,0.541,0.11,0.81c-0.015-0.112-0.032-0.223-0.047-0.336    c0.021,0.148,0.042,0.295,0.062,0.443c-0.005-0.044-0.01-0.088-0.014-0.13c0.014,0.103,0.026,0.206,0.038,0.311    c0.02,0.149,0.039,0.3,0.057,0.451c-0.012-0.085-0.025-0.171-0.036-0.259c0.21,1.974,0.126,3.948,0.202,5.922    c0.072,2.011,0.167,4.164,1.178,5.949c1.737,3.094,4.641,4.986,7.864,6.259c4.296,1.689,9.079,2.141,13.671,2.32    c2.368,0.096,4.736,0.178,7.104,0.215c5.081,0.071,10.161,0.071,15.23,0.012c4.783-0.059,9.555-0.381,14.326-0.607    c5.117-0.238,10.244-0.428,15.372-0.511c2.571-0.036,5.152-0.036,7.722-0.036c2.201,0,4.414,0.012,6.627-0.024    c5.093-0.083,10.174-0.249,15.254-0.476c2.332-0.107,4.665-0.202,6.996-0.286c2.558-0.095,5.211-0.071,7.735-0.571    c0.307-0.058,0.592-0.189,0.885-0.297c0.052,0.027,0.097,0.062,0.15,0.088c0.916,0.44,1.88,0.809,2.832,1.19    c1.523,0.594,3.106,0.75,4.723,0.951c2.415,0.286,4.831,0.298,7.258,0.298c3.784-0.018,7.559-0.291,11.331-0.643    c0.605,0.465,1.318,0.791,2.122,0.776c2.747-0.036,5.449-0.203,8.186-0.499c2.581-0.273,5.152-0.643,7.745-0.857    c5.417-0.451,10.743-1.443,16.1-2.253c2.189-0.273,4.38-0.524,6.578-0.674c2.581-0.167,5.152-0.191,7.734-0.215    c5.283-0.059,10.565-0.012,15.848,0.107c5.402,0.12,10.804,0.393,16.206,0.535c5.52,0.144,11.029,0.144,16.55,0.083    c4.391-0.059,8.781-0.036,13.172-0.071c2.177-0.024,4.379,0,6.545-0.215c2.522-0.238,5.032-0.523,7.543-0.88    c2.392-0.345,4.795-0.667,7.163-1.119c2.879-0.547,5.663-1.82,8.091-3.414c1.261-0.821,2.392-1.82,3.236-3.069    c0.797-1.19,1.19-2.677,1.237-4.093c0.047-1.214-0.154-2.392-0.286-3.605c-0.107-1.095-0.191-2.189-0.262-3.284    c-0.128-1.95-0.138-3.891-0.139-5.839c2.258-1.065,4.332-2.536,6.261-4.071c2.224-1.76,4.022-4.093,5.64-6.39    c0.833-1.178,1.618-2.368,2.38-3.581c0.77-1.233,1.425-2.558,2.014-3.911c1.801,0.573,3.676,0.238,5.461-0.447    c1.677-0.63,3.331-1.332,4.89-2.201c2.689-1.486,5.188-3.236,7.639-5.092c5.794-4.391,11.28-9.043,15.753-14.814    c2.38-3.058,4.688-6.176,7.019-9.281c1.999-2.676,4.022-5.378,5.616-8.329c1.784-3.332,3.236-6.818,4.675-10.304    c1.237-3.011,2.583-6.009,3.701-9.079c1.225-3.343,2.284-6.686,3.153-10.149c0.821-3.284,1.249-6.698,1.749-10.042    C474.972,377.666,475.305,370.574,474.877,363.423z M89.312,262.848c0.422-2.417,1.053-4.735,1.924-7.027    c1.224-2.647,2.628-5.12,4.337-7.482c2.513-3.047,5.3-5.825,8.101-8.603c3.7-3.665,7.21-7.365,10.173-11.684    c0.94-1.381,1.606-2.963,2.237-4.499c0.762-1.855,1.036-3.641,1.273-5.628c0.249-2.095-0.286-4.331-0.69-6.378    c-0.202-1.047-0.511-2.094-0.773-3.13c-0.796-3.133-1.543-6.276-2.076-9.463c-0.262-2.699-0.256-5.35-0.004-8.044    c0.452-2.536,1.155-4.972,2.075-7.361c2.298-5.032,5.118-9.711,8.413-14.141c3.012-3.769,6.225-7.366,9.438-10.964    c1.368-1.534,2.666-3.116,3.962-4.723c1.237-1.523,2.427-3.082,3.57-4.699c1.774-2.522,3.082-5.318,4.105-8.222    c0.857-2.427,1.083-5.14,1.19-7.698c0.059-1.427-0.238-3.022-0.452-4.414c-0.237-1.63-0.618-3.201-1.07-4.783    c-0.773-2.737-1.857-5.413-2.903-8.067c-2.23-5.656-4.304-11.334-5.312-17.356c-0.303-2.883-0.254-5.737,0.037-8.626    c0.804-5.294,2.285-10.434,4.298-15.395c1.743-3.867,3.866-7.474,6.165-11.036c1.822-2.81,3.646-5.589,5.639-8.277    c3.265-4.066,7.047-7.642,11.104-10.899c4.465-3.336,9.22-6.054,14.309-8.317c7.613-3.077,15.591-5.055,23.703-6.268    c5.19-0.596,10.371-0.59,15.56-0.001c1.771,0.285,3.516,0.643,5.238,1.126c0.45,0.56,1.011,1.034,1.681,1.378    c0.058,0.03,0.116,0.058,0.174,0.088c0.514,0.476,1.055,0.936,1.657,1.21c1.476,0.679,2.772,0.976,4.391,1.047    c1.261,0.059,2.606-0.215,3.831-0.381c-0.63,0.083-1.261,0.166-1.892,0.249c4.485-0.583,8.84-1.845,12.923-3.844    c2.332-1.131,4.462-2.581,6.662-3.939c2.279-1.397,4.597-2.645,7.008-3.778c6.148-2.33,12.615-3.657,19.093-4.698    c1.93-0.223,3.857-0.393,5.8-0.447c2.271-0.064,4.502,0.126,6.748,0.352c2.596,0.428,5.113,1.023,7.596,1.905    c4.731,2.282,8.921,5.488,13.077,8.687c3.853,3.041,7.711,6.106,11.714,8.961c4.414,3.165,9.304,5.45,14.634,6.569    c3.017,0.642,5.985,1.082,8.897,2.089c2.052,0.995,3.979,2.172,5.837,3.491c2.282,1.918,4.319,4.055,6.222,6.362    c3.493,4.818,6.18,10.11,8.825,15.422c1.987,3.974,3.867,8.008,5.77,12.017c0.833,1.76,1.701,3.522,2.558,5.283    c1.452,2.998,3.414,5.771,5.45,8.4c1.855,2.404,3.903,4.343,6.305,6.187c3.587,2.775,7.437,5.213,11.14,7.824    c1.552,1.273,3.001,2.607,4.332,4.118c0.345,0.523,0.666,1.056,0.961,1.607c0.293,0.909,0.528,1.823,0.713,2.759    c0.191,3.171-0.093,6.312-0.394,9.458c-0.428,2.683-0.891,5.36-1.38,8.035c-0.928,4.985-1.44,10.007-1.048,15.086    c0.274,3.581,0.75,7.139,1.583,10.65c0.667,2.808,1.808,5.45,2.916,8.104c1.253,2.999,2.596,5.964,3.896,8.947    c1.606,4.082,2.916,8.19,3.679,12.513c0.544,5.414,0.13,10.83,0.54,16.245c0.203,2.666,0.428,5.271,0.773,7.912    c0.33,2.488,0.764,4.956,1.158,7.432c0.361,3.391,0.561,6.79,0.782,10.201c0.32,4.91,0.65,9.71,0.16,14.611    c-0.48,2.915-1.138,5.751-2.156,8.538c-0.676,1.435-1.435,2.802-2.332,4.114c-0.702,0.804-1.43,1.542-2.232,2.24    c-0.516,0.331-1.029,0.629-1.57,0.908c-0.202,0.064-0.405,0.121-0.61,0.17c-0.155,0.01-0.311,0.014-0.467,0.017    c-2.084-0.451-4.106-1.239-6.287-0.635c-2.725,0.75-4.045,3.414-4.854,5.878c-0.8,2.452-1.801,4.877-2.778,7.264    c-1.284,2.818-2.704,5.473-4.477,8.025c-0.9,1.064-1.86,2.043-2.906,2.978c-0.467,0.323-0.941,0.619-1.439,0.9    c-0.405,0.123-0.808,0.228-1.222,0.317c-0.219,0.007-0.438,0.008-0.656,0.001c-0.524-0.113-1.034-0.247-1.547-0.407    c-0.384-0.205-0.754-0.421-1.119-0.656c-0.325-0.303-0.633-0.612-0.932-0.936c-0.371-0.586-0.693-1.177-0.991-1.795    c-0.298-0.83-0.643-1.632-1.04-2.425c-0.594-1.178-1.713-1.952-2.808-2.605c-2.38-1.428-6.032-1.166-7.912,1.024    c-0.63,0.724-1.229,1.47-1.816,2.226c-0.805,0.993-1.585,2.023-2.383,3.022c-1.755,2.224-3.634,4.266-5.768,6.107    c-0.72,0.488-1.447,0.934-2.211,1.339c-1.123-0.633-2.176-1.389-3.209-2.165c-2.262-1.798-4.37-3.731-6.261-5.913    c-0.702-1.044-1.317-2.11-1.86-3.239c-0.615-1.807-1.061-3.631-1.387-5.508c-0.38-3.94-0.106-7.83,0.365-11.752    c0.501-3.354,1.178-6.662,2.044-9.95c0.966-3.7,2.298-7.261,3.743-10.793c1.354-3.114,2.732-6.212,4.015-9.362    c1.486-3.641,2.475-7.948,1.571-11.863c-0.643-2.737-1.94-5.235-3.438-7.591c-2.95-4.591-6.566-8.745-9.991-12.987    c-2.163-2.959-4.06-5.997-5.576-9.334c-0.721-1.915-1.286-3.808-1.641-5.813c-0.261-3.024-0.148-5.998,0.183-9.021    c0.438-2.697,1.011-5.327,1.651-7.974c0.833-3.487,2.118-6.936,2.463-10.506c0.249-2.581-0.13-5.425-2.058-7.341    c-1.154-1.142-2.559-2.011-3.962-2.808c-2.346-1.342-4.648-2.706-6.849-4.283c-2.547-2.057-4.91-4.271-7.008-6.796    c-1.45-2.033-2.769-4.146-4.099-6.268c-1.464-2.332-3.118-4.546-5.521-5.961c-1.119-0.655-2.784-1.131-4.081-1.131    c-1.104,0-2.37,0.294-3.498,0.507c-0.034,0.005-0.069,0.009-0.103,0.015c-1.013,0.113-2.021,0.236-3.037,0.336    c-3.269,0.339-6.607,0.129-9.874-0.257c-3.132-0.495-6.124-1.199-9.09-2.316c-2.533-1.172-4.898-2.577-7.165-4.223    c-2.287-1.891-4.35-3.944-6.246-6.229c-1.68-2.304-3.103-4.707-4.291-7.302c-1.346-3.519-2.213-7.133-2.788-10.851    c-0.52-4.217-0.733-8.425-0.859-12.665c-0.059-1.785-0.012-3.57,0.012-5.355c0.036-2.724,0.297-5.425,0.083-8.15    c-0.154-2.035-0.976-3.82-2.796-4.89c-1.892-1.107-3.807-0.857-5.711,0c-2.629,1.19-3.7,4.272-4.391,6.865    c-0.416,1.581-0.785,3.164-1.107,4.771c-0.738,3.653-1.344,7.341-2.236,10.97c-0.88,3.593-1.916,7.151-3.011,10.697    c-1.188,3.879-2.408,7.757-3.889,11.548c-1.903,4.251-4.268,8.193-7.035,11.94c-1.463,1.752-2.89,3.53-4.424,5.222    c-1.785,1.963-3.605,3.856-5.474,5.735c-3.487,3.522-7.305,6.71-11.005,9.983c-4.58,4.081-8.662,8.912-11.518,14.36    c-3.189,6.092-4.569,13.041-4.533,19.882c0.045,6.799,1.24,13.544,2.235,20.267c0.177,1.605,0.318,3.184,0.254,4.794    c-0.097,0.431-0.211,0.842-0.35,1.262c-0.146,0.265-0.304,0.523-0.473,0.776c-3.167,3.816-6.726,7.291-10.113,10.917    c-1.642,1.749-3.118,3.676-4.474,5.663c-1.749,2.534-2.939,5.462-4.022,8.329c-2.046,5.389-2.892,11.185-3.272,16.907    c-0.321,4.795-0.618,9.602-1.095,14.384c-0.484,4.745-1.031,9.48-1.628,14.214c-0.541,3.182-1.227,6.236-2.371,9.266    c-1.378,3.061-3.012,5.981-4.964,8.709c-0.868,1.031-1.77,1.981-2.775,2.871c-0.666,0.44-1.337,0.839-2.043,1.208    c-1.602,0.584-3.222,1.019-4.898,1.319c-0.677,0.033-1.337,0.037-2.011,0.008c-0.406-0.093-0.802-0.202-1.202-0.331    c-0.452-0.24-0.886-0.491-1.317-0.766c-0.592-0.529-1.133-1.088-1.653-1.69c-0.418-0.611-0.802-1.227-1.164-1.876    c-0.261-0.773-0.465-1.547-0.628-2.349c-0.109-1.46-0.104-2.885,0.006-4.344c0.013-0.063,0.026-0.123,0.04-0.185    c0.501-0.957,0.875-1.946,1.023-2.947c-0.011-0.004-0.023-0.006-0.033-0.009c0.409-1.418,0.275-2.96-0.539-4.346    c-1.547-2.653-5.068-3.581-7.734-2.023c-0.471,0.275-0.89,0.623-1.317,0.957c-4.272,3.376-7.875,7.461-12.016,10.977    c-1.03,0.728-2.074,1.396-3.195,1.973c-0.511,0.177-1.019,0.333-1.547,0.467c-0.076,0-0.151,0-0.225-0.001    c-0.095-0.025-0.19-0.05-0.285-0.077c-0.077-0.045-0.154-0.09-0.23-0.138c-0.159-0.148-0.313-0.301-0.464-0.459    c-0.246-0.371-0.471-0.747-0.685-1.142c-0.422-1.255-0.733-2.513-0.974-3.816c-0.223-2.326-0.308-4.668-0.562-7.002    c-0.178-1.701-0.679-3.498-1.94-4.746c-1.142-1.142-3.011-1.833-4.617-1.833c-1.511,0-3.011,0.643-4.474,0.953    c-1.743,0.378-3.478,0.772-5.24,1.072c-0.699,0.056-1.374,0.077-2.064,0.053c-0.341-0.077-0.672-0.165-1.002-0.268    c-0.547-0.304-1.068-0.623-1.587-0.964c-0.66-0.573-1.266-1.179-1.851-1.829c-0.312-0.49-0.596-0.976-0.862-1.491    c-0.261-0.778-0.473-1.56-0.642-2.367C89.17,265.67,89.193,264.273,89.312,262.848z M408.247,270.898    c-0.039,0.332-0.084,0.658-0.127,0.982c-0.005,0.011-0.008,0.023-0.013,0.033C408.155,271.576,408.202,271.237,408.247,270.898z     M355.025,294.574c-0.002,0.001-0.005,0.004-0.008,0.005c-0.101-0.042-0.202-0.085-0.301-0.133    C354.819,294.488,354.923,294.531,355.025,294.574z M205.238,192.382c-0.227-1.784-0.452-3.57-0.679-5.354    c-0.225-1.762-0.298-3.546-0.44-5.318c-0.279-3.471-0.345-6.894,0.013-10.346c0.419-2.303,0.992-4.535,1.784-6.738    c1.037-2.202,2.205-4.236,3.615-6.22c5.614-6.777,13.206-11.514,19.789-17.294c2.439-2.141,4.759-4.426,6.96-6.83    c2.201-2.415,4.248-4.914,6.2-7.543c3.045-4.105,5.152-8.746,7.019-13.48c0.445-1.138,0.849-2.296,1.228-3.465    c0.298,0.866,0.622,1.725,0.973,2.573c2.498,6.032,6.318,11.339,10.958,15.909c4.652,4.557,10.291,7.745,16.372,9.971    c2.593,0.94,5.401,1.44,8.114,1.904c3.451,0.582,6.936,0.951,10.447,0.88c1.592-0.033,3.177-0.217,4.745-0.499    c0.782,1.235,1.52,2.504,2.275,3.759c2.141,3.546,4.807,6.806,7.769,9.709c1.571,1.547,3.319,2.927,5.068,4.259    c1.488,1.131,3.023,2.249,4.7,3.106c0.909,0.461,1.823,0.918,2.753,1.338c-0.352,2.019-0.765,4.029-1.135,6.05    c-0.535,2.855-0.988,5.711-1.368,8.602c-0.631,4.795-0.464,9.518,0.274,14.289c0.308,2.035,1.011,3.986,1.749,5.89    c0.88,2.273,1.892,4.485,3.035,6.627c3.924,7.4,9.953,13.409,13.563,20.987c0.19,0.541,0.349,1.071,0.486,1.632    c0.005,0.205,0.004,0.412-0.005,0.618c-0.435,2.144-1.166,4.143-1.982,6.165c-1.234,2.778-2.473,5.548-3.65,8.35    c-0.11,0.262-0.199,0.528-0.307,0.79c-0.075,0.087-0.167,0.148-0.24,0.241c-0.602,0.712-1.102,1.466-1.631,2.218    c-0.669,0.791-1.4,1.492-2.203,2.151c-0.643,0.476-1.291,0.954-1.858,1.52c-0.499,0.488-0.963,1.012-1.428,1.523    c-1.118,1.249-2.177,2.534-3.355,3.712c-2.391,2.368-4.852,4.607-7.466,6.697c-3.583,2.635-7.339,5.039-11.216,7.224    c-3.966,2.233-8.127,4.131-12.267,6.023c-5.623,2.18-11.45,3.61-17.383,4.659c-2.137,0.247-4.261,0.405-6.426,0.395    c-2.796-0.012-5.592-0.025-8.377-0.132c-5.351-0.197-10.663-0.662-15.971-1.316c-6.656-1.11-13.331-2.668-19.597-5.239    c-0.479-0.201-0.959-0.402-1.438-0.604c-7.985-3.622-15.681-8.075-22.777-13.248c-2.513-1.981-4.962-4.03-7.381-6.138    c-2.316-2.017-4.374-4.229-6.292-6.615c-2.261-3.099-4.416-6.271-6.704-9.347c0.44-1.809,0.954-3.599,1.631-5.362    c0.829-1.777,1.783-3.439,2.909-5.044c2.666-3.218,5.875-5.902,9.043-8.594c3.736-3.177,8.091-6.437,9.756-11.208    C206.464,201.711,205.821,197.011,205.238,192.382z M108.519,481.459c-1.464-0.686-2.84-1.483-4.158-2.425    c-1.226-0.997-2.383-2.03-3.414-3.227c-0.575-0.833-1.064-1.693-1.508-2.605c-1.007-2.629-1.56-5.417-1.993-8.199    c-0.231-1.957-0.415-3.915-0.542-5.883c-0.13-2.237-0.047-4.485,0.012-6.723c0.095-3.746,0.546-7.502,0.979-11.234    c0.552-1.6,1.106-3.201,1.72-4.793c1.076-2.46,2.253-4.851,3.754-7.092c1.476-1.747,3.12-3.253,4.911-4.7    c-0.231,0.184-0.47,0.363-0.705,0.543c0.298-0.231,0.594-0.461,0.89-0.69c0.839-0.594,1.667-1.209,2.574-1.698    c0.802-0.434,1.619-0.823,2.451-1.197c0.751-0.301,1.503-0.591,2.284-0.802c0.827-0.225,1.661-0.406,2.502-0.56    c1.419-0.148,2.821-0.227,4.253-0.127c1.057,0.192,2.097,0.447,3.121,0.796c0.397,0.202,0.779,0.422,1.153,0.671    c1.261,1.055,2.436,2.212,3.489,3.469c1.069,1.578,1.93,3.287,2.74,5.012c0.402,1.093,0.693,2.192,0.917,3.335    c0.04,0.7,0.049,1.383,0.012,2.089c-0.157,0.844-0.357,1.668-0.635,2.482c-0.306,0.598-0.648,1.165-1.027,1.721    c-0.776,0.935-1.581,1.842-2.438,2.708c-1.225,1.249-2.581,2.344-3.879,3.51c-0.511,0.464-1.083,1.131-1.428,1.689    c-0.357,0.547-0.631,1.131-0.833,1.749c-0.083,0.594-0.154,1.19-0.238,1.784c-0.119,0.951,0.489,2.368,0.976,3.13    c0.13,0.202,0.286,0.393,0.416,0.594c0.701,0.953,1.28,1.976,1.804,3.033c0.282,0.758,0.511,1.514,0.671,2.31    c0.02,0.438,0.018,0.86-0.009,1.288c-0.125,0.556-0.279,1.088-0.469,1.618c-0.253,0.491-0.536,0.944-0.848,1.392    c-0.842,0.987-1.752,1.87-2.742,2.721c-0.282,0.206-0.566,0.409-0.848,0.607c-1.511,1.046-2.666,2.463-2.666,4.414    c0,1.107,0.369,2.19,0.988,3.094c0.057,0.083,0.11,0.168,0.16,0.255c0.074,0.25,0.134,0.504,0.185,0.76    c0.068,0.929,0.066,1.849-0.005,2.78c-0.108,0.549-0.24,1.083-0.413,1.616c-0.115,0.227-0.24,0.447-0.375,0.666    c-0.135,0.142-0.272,0.278-0.415,0.409c-0.287,0.179-0.579,0.345-0.881,0.497c-0.769,0.274-1.54,0.476-2.338,0.626    c-0.932,0.051-1.833,0.038-2.755-0.034C112.067,482.538,110.283,482.127,108.519,481.459z M220.484,416.337    c-0.237,2.522-0.393,5.044-0.523,7.568c-0.262,4.831-0.298,9.661-0.286,14.492c0,10.066,0.059,20.132-0.036,30.198    c-0.036,4.878-0.357,9.744-0.416,14.611c-0.036,2.654,0.012,5.283,0.154,7.936c0.095,1.677,0.381,3.438,0.655,5.092    c0.05,0.299,0.133,0.592,0.196,0.889c-1.804,0.179-3.615,0.356-5.427,0.497c-4.962,0.393-9.935,0.679-14.897,0.88    c-5.081,0.215-10.161,0.369-15.242,0.584c-4.866,0.214-9.721,0.69-14.575,1.131c-3.498,0.31-6.972,0.809-10.47,1.131    c-3.866,0.369-7.745,0.584-11.625,0.738c-3.379,0.13-6.77,0.249-10.161,0.225c-4.051-0.012-8.101-0.036-12.131-0.464    c-2.003-0.311-3.941-0.77-5.832-1.49c-0.639-0.321-1.261-0.661-1.861-1.052c-0.358-0.312-0.695-0.638-1.014-0.989    c-0.637-1.002-1.137-2.044-1.609-3.126c-0.596-1.51-1.094-3.049-1.514-4.609c1.029,0.079,2.056,0.117,3.109,0.038    c2.201-0.167,4.201-0.821,6.21-1.689c3.558-1.523,5.521-5.259,6.187-8.888c0.321-1.749,0.511-3.605,0.381-5.389    c-0.044-0.649-0.129-1.348-0.279-2.039c0.497-0.568,0.987-1.144,1.445-1.744c0.916-1.166,1.833-2.332,2.559-3.617    c1.011-1.784,1.642-3.819,1.892-5.841c0.321-2.63-0.167-5.271-0.762-7.84c-0.149-0.639-0.338-1.258-0.539-1.871    c0.587-0.568,1.195-1.119,1.776-1.687c0.868-0.833,1.689-1.725,2.498-2.605c1.297-1.44,2.522-2.963,3.509-4.629    c1.024-1.737,1.583-3.748,2.118-5.687c0.393-1.357,0.536-2.796,0.667-4.201c0.059-0.631,0.036-1.297,0-1.94    c-0.059-1.63-0.322-3.355-0.857-4.902c-0.523-1.511-1.119-2.986-1.774-4.45c-1.012-2.237-2.415-4.164-4.045-6.009    c-0.69-0.773-1.486-1.452-2.273-2.129c-0.478-0.401-0.994-0.778-1.503-1.161c1.263-0.144,2.526-0.293,3.791-0.418    c0.042-0.004,0.083-0.008,0.123-0.012c1.847,0.06,3.694,0.14,5.539,0.238c4.7,0.25,9.4,0.594,14.099,0.797    c4.807,0.214,9.626,0.321,14.433,0.428c9.507,0.191,19.001,0.499,28.508,0.476c4.272-0.012,8.543-0.012,12.826-0.167    c2.224-0.083,4.474-0.249,6.698-0.535c0.229-0.028,0.448-0.06,0.673-0.088C220.727,414.121,220.581,415.228,220.484,416.337z     M222.804,391.421c-0.223,1.44-0.472,2.867-0.737,4.297c-0.395,2.077-0.857,4.203-1.555,6.206    c-0.17,0.329-0.348,0.643-0.544,0.949c-0.098,0.106-0.199,0.209-0.301,0.308c-0.3,0.077-0.603,0.136-0.912,0.189    c-8.667,1.029-17.401,1.178-26.124,1.271c-9.59,0.096-19.179,0.191-28.781,0.238c-4.474,0.024-8.947-0.119-13.434-0.273    c-5.352-0.178-10.708-0.355-16.049-0.24c0.091,0.012,0.182,0.025,0.272,0.037c-0.091-0.012-0.181-0.025-0.273-0.037h-0.001    c-0.694-0.091-1.384-0.178-2.082-0.272c0.369,0.047,0.75,0.095,1.119,0.142c-2.297-0.31-4.58-0.679-6.877-0.916    c-2.273-0.225-4.485-0.142-6.747-0.024c-2.213,0.13-4.414,0.178-6.627,0.225c-2.61,0.057-5.22,0.157-7.83-0.072    c-0.609-0.103-1.208-0.235-1.801-0.415c-0.94-2.717-1.439-5.544-1.855-8.387c-0.406-3.08-0.74-6.17-0.982-9.27    c-0.13-1.689-0.142-3.367-0.13-5.057c0.008-1.193,0.151-2.388,0.31-3.574c0.484-2.496,0.999-4.971,1.864-7.361    c0.313-0.654,0.657-1.276,1.052-1.88c0.196-0.204,0.395-0.399,0.602-0.587c0.352-0.219,0.711-0.419,1.078-0.603    c2.734-0.906,5.661-1.218,8.504-1.677c1.999-0.31,3.998-0.607,5.997-0.892c-0.559,0.072-1.107,0.144-1.666,0.215    c9.494-1.261,18.989-2.475,28.508-3.522c9.566-1.047,19.169-1.535,28.769-2.035c7.246-0.381,14.48-0.571,21.714-0.999    c3.498-0.202,6.996-0.416,10.494-0.607c1.666-0.095,3.343-0.154,5.009-0.19c2.806-0.052,5.62-0.171,8.418,0.101    c0.431,0.096,0.849,0.205,1.268,0.331c0.017,0.072,0.031,0.145,0.046,0.217c0.546,5.675,0.684,11.41,0.833,17.091    C223.503,380.042,223.346,385.759,222.804,391.421z M103.882,403.512c-0.09-0.059-0.177-0.122-0.261-0.189    c-0.002-0.006-0.005-0.013-0.007-0.019C103.704,403.373,103.793,403.442,103.882,403.512z M228.003,342.775    c-0.304-0.008-0.609-0.026-0.913-0.026c-0.461,0-0.922,0.011-1.383,0.034c-1.261,0.059-2.522,0.286-3.771,0.44    c-1.344,0.179-2.689,0.322-4.045,0.44c-2.654,0.238-5.33,0.369-7.984,0.428c-2.107,0.052-4.207,0.141-6.304,0.206    c-0.147-0.27-0.298-0.54-0.432-0.816c-1.441-3.654-2.342-7.461-3.038-11.319c-0.32-3-0.457-5.979-0.148-8.985    c0.23-1.239,0.539-2.43,0.963-3.615c0.256-0.52,0.528-1.017,0.835-1.51c0.236-0.26,0.482-0.508,0.744-0.751    c0.273-0.178,0.549-0.344,0.839-0.501c0.308-0.098,0.616-0.182,0.93-0.257c1.485-0.094,2.949,0.007,4.431,0.148    c2.164,0.365,4.264,0.839,6.339,1.6c1.797,0.832,3.479,1.828,5.109,2.966c2.274,1.803,4.468,3.661,6.511,5.725    c0.432,0.434,0.935,0.756,1.466,0.999c-0.011,1.108,0.024,2.216,0.109,3.296c0.13,1.689,0.345,3.404,0.606,5.069    c0.312,1.914,0.587,3.858,1.09,5.732C229.264,342.185,228.627,342.466,228.003,342.775z M275.614,488.644    c-0.146,1.051-0.305,2.106-0.583,3.124c-0.145,0.255-0.298,0.502-0.463,0.745c-0.558,0.643-1.145,1.242-1.779,1.814    c-0.713,0.469-1.458,0.864-2.235,1.224c-2.344,0.89-4.726,1.489-7.186,1.969c-4.192,0.441-8.377,0.597-12.59,0.641    c-4.099,0.056-8.22,0.101-12.302-0.304c-1.431-0.228-2.833-0.522-4.208-0.97c-0.009-0.005-0.019-0.011-0.028-0.017    c-0.11-0.112-0.217-0.223-0.323-0.339c-0.356-0.568-0.68-1.145-0.975-1.745c-0.558-1.587-0.898-3.21-1.224-4.857    c-0.507-4.476-0.677-8.979-0.808-13.482c-0.144-5.223-0.191-10.447-0.191-15.67c-0.012-9.768,0.154-19.524,0.215-29.294    c0.034-6.013,0.047-12.072,0.744-18.055c0.741-5.233,1.75-10.43,2.242-15.701c0.262-2.7,0.405-5.425,0.333-8.15    c0-0.026-0.005-0.051-0.006-0.077c0.055-0.529,0.129-1.055,0.171-1.586c0.345-4.604,0.476-9.245,0.393-13.862    c-0.083-4.854-0.274-9.709-0.655-14.54c-0.119-1.464-0.333-2.903-0.559-4.355c-0.081-0.534-0.272-1.03-0.435-1.535    c0.184-0.037,0.367-0.074,0.556-0.107c5.102-0.571,10.226-0.762,15.349-1.12c5.215-0.369,10.543-0.948,15.788-0.554    c0.112,0.026,0.223,0.056,0.332,0.088c0.198,0.106,0.39,0.219,0.579,0.342c0.269,0.262,0.523,0.528,0.769,0.805    c0.734,1.087,1.338,2.229,1.895,3.411c1.376,3.576,2.026,7.302,2.581,11.073c1.101,10.112,1.548,20.26,1.995,30.418    c0.428,10.007,1.523,19.976,2.106,29.971c0.584,10.208,0.476,20.441,0.56,30.673c0.036,4.962,0.059,9.924,0.19,14.885    C275.99,478.57,276.084,483.607,275.614,488.644z M238.963,326.251c0.149-0.717,0.331-1.411,0.558-2.103    c0.285-0.555,0.597-1.082,0.942-1.604c0.574-0.65,1.18-1.25,1.838-1.817c0.667-0.445,1.344-0.839,2.062-1.189    c1.138-0.412,2.28-0.707,3.464-0.929c1.226-0.106,2.411-0.108,3.633-0.004c0.605,0.132,1.183,0.286,1.765,0.475    c0.451,0.237,0.881,0.491,1.31,0.772c0.592,0.54,1.128,1.104,1.644,1.709c0.531,0.792,0.983,1.6,1.393,2.447    c0.348,1.002,0.609,1.994,0.802,3.038c0.291,2.753,0.469,5.599,0.255,8.355c-0.164,0.892-0.38,1.763-0.625,2.634    c-0.294,1.072-0.445,2.116-0.593,3.214c-1.814,0.02-3.623,0.126-5.394,0.305c-2.094,0.215-4.188,0.464-6.271,0.714    c-1.647,0.187-3.298,0.39-4.943,0.624c-0.591-2.023-1.014-4.086-1.358-6.182C239.022,333.234,238.65,329.736,238.963,326.251z     M269.403,334.313c-0.083-1.392-0.286-2.808-0.44-4.201c-0.15-1.381-0.32-2.775-0.543-4.157c0.559-0.261,1.074-0.59,1.425-1.033    c1.285-1.63,2.63-3.189,4.034-4.712c1.229-1.325,2.689-2.458,4.094-3.59c3.345-2.449,6.73-4.79,10.479-6.579    c1.03-0.39,2.05-0.723,3.132-0.959c0.914-0.072,1.813-0.081,2.73-0.03c0.443,0.093,0.87,0.203,1.305,0.34    c0.069,0.038,0.138,0.078,0.204,0.12c0.248,0.233,0.48,0.47,0.707,0.722c0.342,0.534,0.647,1.068,0.936,1.632    c0.664,1.77,1.139,3.557,1.457,5.422c0.319,2.986,0.272,5.947,0.043,8.946c-0.295,1.861-0.722,3.672-1.249,5.467    c-1.057,1.911-2.065,3.865-3.286,5.68c-1.048,1.575-2.145,3.114-3.254,4.646c-0.108,0.006-0.216,0.013-0.324,0.02    c-6.139,0.333-12.268,0.963-18.407,1.356c-0.739,0.05-1.433,0.187-2.083,0.428c-0.561-0.349-1.141-0.654-1.75-0.913    c0.093-0.247,0.228-0.475,0.305-0.728c0.249-0.821,0.273-1.76,0.369-2.618C269.474,337.822,269.51,336.074,269.403,334.313z     M282.452,393.039c-0.31-5.176-0.702-10.339-1.142-15.516c-0.202-2.344-0.381-4.699-0.655-7.044    c-0.321-2.82-0.582-5.675-1.131-8.46c-0.486-2.511-1.043-4.984-1.881-7.397c3.909-0.21,7.824-0.399,11.729-0.489    c5.819-0.144,11.648-0.286,17.454-0.655c5.831-0.357,11.66-0.762,17.503-0.892c5.865-0.13,11.72-0.166,17.586-0.249    c4.177-0.059,8.353-0.119,12.517-0.333c3.903-0.215,7.794-0.702,11.672-1.036c4.238-0.368,8.474-0.713,12.709-0.94    c1.76-0.095,3.522-0.119,5.283-0.154c2.091-0.042,4.211-0.157,6.31-0.006c1.713,0.343,3.386,0.9,5.028,1.529    c0.555,0.265,1.09,0.549,1.617,0.872c0.27,0.25,0.524,0.509,0.775,0.782c0.886,1.333,1.58,2.732,2.23,4.186    c0.463,1.273,0.883,2.548,1.268,3.844c0.365,1.197,0.574,2.456,0.784,3.693c0.321,2.86,0.478,5.699,0.49,8.585    c0.01,2.549-0.372,5.115-0.715,7.647c-0.291,2.076-0.654,4.202-1.254,6.227c-0.269,0.151-0.543,0.294-0.822,0.431    c-4.878,1.821-10.116,2.394-15.248,3.115c-4.222,0.594-8.444,1.223-12.677,1.83c-2.387,0.298-4.77,0.569-7.169,0.798    c-2.678,0.274-5.389,0.31-8.091,0.44c-5.783,0.286-11.542,0.75-17.324,1.036c-5.486,0.262-10.982,0.523-16.467,0.667    c-2.654,0.083-5.295,0.059-7.937,0.049c-2.95-0.024-5.914-0.036-8.864,0.059c-4.783,0.179-9.518,1.059-14.23,1.868    c-1.845,0.31-3.712,0.56-5.545,0.94c-0.871,0.182-1.706,0.459-2.566,0.655c-0.266-0.083-0.528-0.108-0.791-0.149    C282.757,396.995,282.566,395.019,282.452,393.039z M285.062,407.229c-0.026,0.02-0.053,0.04-0.079,0.059    c-0.012,0.006-0.023,0.011-0.034,0.015C284.986,407.279,285.024,407.254,285.062,407.229z M389.423,493.268    c-0.017,0.075-0.033,0.149-0.051,0.223c-0.784,0.502-1.607,0.93-2.453,1.324c-1.553,0.585-3.12,0.947-4.761,1.217    c-4.876,0.647-9.78,1.243-14.695,1.166c-5.592-0.083-11.185-0.25-16.765-0.393c-5.604-0.144-11.185-0.476-16.765-1.071    c-5.366-0.583-10.708-1.225-16.11-1.523c-5.211-0.297-10.411-0.381-15.634-0.286c-5.521,0.107-11.173,0.44-16.515,1.892    c-0.018,0.005-0.034,0.011-0.052,0.017c0.349-0.941,0.607-1.871,0.759-2.91c0.44-2.998,0.667-5.938,0.75-8.947    c0.144-5.02-0.31-10.09-0.535-15.11c-0.238-5.034-0.286-10.09-0.369-15.123c-0.166-10.198-0.345-20.37-1.19-30.531    c-0.416-4.902-0.964-9.804-1.415-14.694c-0.019-0.198-0.027-0.399-0.045-0.597c0.234-0.075,0.47-0.136,0.693-0.242    c0.52,0.007,1.034,0.064,1.549,0.127c-0.001,0-0.004,0-0.005,0c1.701,0.238,3.395,0.476,5.121,0.572    c2.368,0.13,4.748,0.178,7.127,0.13c5.318-0.095,10.637-0.286,15.968-0.322c11.256-0.072,22.535-0.369,33.767-1.178    c5.604-0.416,11.232-0.618,16.848-1.036c3.343-0.249,6.687-0.809,10.007-1.273c2.796-0.405,5.58-0.88,8.377-1.32    c2.154-0.352,4.325-0.68,6.493-1.013c0.16,1.005,0.325,2.007,0.488,3.013c-0.714,0.079-1.426,0.158-2.144,0.285    c-2.546,0.452-5.14,1.594-7.305,2.986c-2.214,1.428-3.95,3.392-5.271,5.652c-1.202,2.082-1.879,4.509-2.129,6.901    c-0.297,2.772,0.274,5.711,0.868,8.412c0.396,1.757,1.217,3.325,2.203,4.797c-0.008,0.007-0.017,0.014-0.025,0.021    c-1.036,0.845-2.023,1.713-2.927,2.701c-2.82,3.093-4.617,7.4-4.236,11.625c0.431,4.605,3.278,8.251,6.668,11.237    c-0.617,0.784-1.216,1.583-1.778,2.411c-2.201,3.248-3.082,7.21-1.773,10.982c1.107,3.201,3.498,5.509,6.187,7.424    c1.452,1.036,3.236,1.677,4.902,2.237c0.999,0.345,2.034,0.523,3.058,0.714c1.021,0.197,2.041,0.298,3.057,0.351    c0.013,1.335,0.015,2.669,0.052,4.003C389.457,489.832,389.52,491.555,389.423,493.268z M407.398,448.673    c-0.643,3.854-1.772,7.601-3.081,11.289c-1.381,3.05-3.04,5.934-5.029,8.644c-1.043,1.269-2.157,2.424-3.413,3.479    c-1.095,0.796-2.232,1.496-3.449,2.1c-0.541,0.186-1.078,0.336-1.635,0.45c-0.751,0.036-1.486,0.013-2.233-0.052    c-1.256-0.24-2.462-0.53-3.665-0.961c-0.663-0.333-1.286-0.698-1.9-1.116c-0.402-0.362-0.777-0.74-1.132-1.146    c-0.209-0.324-0.396-0.649-0.571-0.987c-0.039-0.128-0.074-0.257-0.104-0.388c-0.001-0.075-0.001-0.151-0.001-0.225    c0.076-0.306,0.164-0.601,0.266-0.897c0.527-0.979,1.115-1.893,1.771-2.785c0.844-1.063,1.71-2.104,2.533-3.179    c0.809-1.046,1.297-2.487,1.297-3.807c0-1.666-0.904-3.177-2.118-4.259c-1.705-1.515-3.431-2.958-4.942-4.659    c-0.279-0.406-0.534-0.82-0.769-1.256c-0.09-0.273-0.168-0.548-0.237-0.829c-0.007-0.282-0.004-0.562,0.008-0.845    c0.103-0.457,0.231-0.902,0.381-1.348c0.308-0.615,0.652-1.195,1.04-1.762c0.851-0.979,1.8-1.851,2.782-2.712    c0.405-0.357,0.821-0.726,1.237-1.107c0.999-0.892,2.129-2.129,2.439-3.475c0.154-0.594,0.249-1.202,0.297-1.821    c0-0.868-0.225-1.677-0.654-2.427c-0.416-0.809-1.036-1.439-1.666-2.094c-0.466-0.495-0.909-1.019-1.346-1.543    c-0.266-0.377-0.508-0.766-0.733-1.179c-0.39-1.127-0.624-2.28-0.817-3.461c-0.083-0.789-0.128-1.573-0.085-2.362    c0.151-0.687,0.342-1.35,0.573-2.012c0.291-0.563,0.607-1.096,0.964-1.615c0.374-0.42,0.765-0.813,1.185-1.186    c0.771-0.522,1.575-0.969,2.419-1.378c1.333-0.509,2.68-0.904,4.089-1.161c1.128-0.099,2.243-0.12,3.369-0.027    c0.776,0.158,1.523,0.362,2.267,0.618c0.612,0.294,1.208,0.61,1.809,0.945c0.601,0.339,1.252,0.533,1.904,0.59    c0.113,0.075,0.223,0.149,0.335,0.227c0.737,0.638,1.413,1.323,2.044,2.061c0.889,1.268,1.661,2.579,2.323,3.973    c0.591,1.555,1.058,3.15,1.32,4.792c0.34,2.625,0.667,5.257,1.033,7.881c0.247,2.11,0.446,4.209,0.415,6.346    C407.889,444.234,407.627,446.463,407.398,448.673z M459.978,378.119c-0.95,6.145-2.153,12.202-4.102,18.12    c-0.928,2.844-2.094,5.604-3.236,8.377c-1.154,2.784-2.28,5.577-3.419,8.364c-0.676,1.531-1.374,3.033-2.114,4.534    c-0.833,1.666-1.963,3.201-3.045,4.712c-1.989,2.764-4.03,5.494-6.094,8.202c-2.609,3.29-5.312,6.451-8.303,9.396    c-2.553,2.51-5.356,4.781-8.176,6.984c-0.779,0.572-1.6,1.076-2.401,1.611c0.076-0.489,0.164-0.973,0.235-1.464    c0.404-2.808,0.785-5.604,0.773-8.448c-0.024-2.642-0.215-5.259-0.618-7.865c-0.31-2.07-0.88-4.034-1.594-5.997    c-1.76-4.854-4.093-9.733-7.591-13.6c-2.969-3.274-7.078-5.44-11.459-5.958c-0.071-0.273-0.152-0.543-0.247-0.813    c-0.19-0.56-0.381-1.107-0.535-1.677c-0.148-0.534-0.235-1.076-0.357-1.61c1.853-0.387,3.688-0.847,5.488-1.471    c1.773-0.631,3.546-1.381,5.117-2.404c0.773-0.499,1.523-1.131,2.141-1.82c1-1.095,1.5-2.153,2.035-3.522    c0.594-1.488,0.999-2.999,1.344-4.57c0.643-2.879,0.785-5.914,1.023-8.852c0.488-6.056-0.488-12.219-1.999-18.085    c-0.714-2.796-1.928-5.545-3.13-8.162c-1.154-2.534-2.392-5.032-4.248-7.139c-1.999-2.261-4.509-3.7-7.199-4.961    c-2.118-1-4.402-1.916-6.735-2.237c-1.76-0.236-3.488-0.35-5.259-0.374c-0.063-0.377-0.144-0.758-0.237-1.146    c-0.106-0.438-0.189-0.874-0.261-1.316c-0.254-2.616-0.198-5.259-0.287-7.881c-0.107-3.343-0.238-6.687-0.215-10.042    c0.012-1.916-1.606-3.509-3.509-3.509c-1.94,0-3.498,1.594-3.522,3.509c-0.024,2.725,0.012,5.462-0.059,8.186    c-0.058,2.385-0.363,4.758-0.643,7.12c-0.123,0.834-0.279,1.661-0.499,2.482c-0.248,0.959-0.62,1.877-0.923,2.831    c-5.031,0.279-10.046,0.731-15.07,1.176c-2.938,0.262-5.865,0.488-8.817,0.606c-2.749,0.12-5.497,0.107-8.246,0.144    c-5.878,0.059-11.755,0.059-17.622,0.238c-5.854,0.178-11.672,0.571-17.502,1.059c-0.275,0.024-0.55,0.039-0.827,0.062    c0.032-0.215,0.064-0.409,0.095-0.66c0.036-0.381,0.047-0.762,0.024-1.142c-0.024-1.154-0.012-2.297,0.036-3.438    c0.12-2.559,0.357-5.093,0.452-7.639c0.095-2.571,0.119-5.176-0.154-7.745c-0.249-2.309-0.499-4.617-0.988-6.901    c-0.726-3.462-2.118-7.115-4.474-9.804c-2.392-2.749-5.652-4.022-9.198-4.462c-0.772-0.094-1.536-0.139-2.293-0.139    c-3.101,0-6.076,0.753-8.974,2.006c-2.832,1.226-5.389,2.867-7.972,4.569c-1.344,0.88-2.678,1.88-3.939,2.892    c-0.94,0.762-1.928,1.486-2.808,2.307c-1.566,1.453-2.979,3.001-4.345,4.611c-1.829-2.335-4.417-4.215-7.172-5.274    c-2.473-0.949-5.12-1.275-7.755-1.275c-0.14,0-0.28,0-0.42,0.002c-1.774,0.012-3.582,0.345-5.308,0.701    c-1.5,0.298-2.891,0.94-4.283,1.535c-2.297,0.988-4.379,2.796-6.032,4.641c-0.428,0.483-0.815,0.991-1.177,1.513    c-2.691-2.492-5.596-4.799-8.717-6.641c-3.522-2.094-7.473-3.284-11.506-3.879c-1.794-0.272-3.643-0.498-5.477-0.499    c-1.938,0-3.862,0.254-5.684,0.975c-9.852,3.903-10.506,15.801-9.661,24.868c0.369,3.86,1.071,7.678,1.618,11.513    c0.144,1.163,0.269,2.332,0.369,3.503c0.008,0.099,0.027,0.193,0.037,0.291c-2.716,0.12-5.43,0.209-8.148,0.256    c-3.771,0.071-7.543,0.047-11.303,0.036c-5.378-0.024-10.745-0.047-16.11,0.154c-5.704,0.225-11.397,0.642-17.082,1.18    c-0.104-0.616-0.23-1.228-0.348-1.838c-0.237-1.332-0.488-2.666-0.88-3.962c-0.836-2.719-1.593-5.417-2.082-8.212    c-0.395-3.214-0.649-6.454-0.845-9.695c-0.13-2.273-1.796-4.177-4.176-4.177c-2.19,0-4.307,1.903-4.177,4.177    c0.13,2.534,0.286,5.068,0.452,7.603c0.142,2.344,0.381,4.699,0.511,7.044c0.107,2.106-0.12,4.188-0.096,6.282    c0.012,1.047,0.083,2.082,0.12,3.13c0.012,0.301,0.037,0.599,0.053,0.899c-0.058,0.007-0.116,0.012-0.174,0.02    c-5.128,0.655-10.269,1.249-15.372,2.07c-2.285,0.369-4.557,0.762-6.841,1.178c-3.404,0.618-6.699,1.903-9.352,4.164    c-2.82,2.415-4.414,5.807-5.403,9.328c-0.975,3.485-1.308,7.175-1.583,10.779c-0.19,2.38-0.036,4.783,0.12,7.163    c0.333,4.961,1.023,9.911,1.82,14.814c0.369,2.177,0.976,4.319,1.726,6.39c0.333,0.916,0.726,1.821,1.142,2.701    c0.726,1.547,2.309,2.713,3.736,3.546c2.001,1.154,4.382,1.609,6.705,1.842c-0.689,0.511-1.389,1.004-2.045,1.568    c-2.261,1.94-4.164,4.224-5.973,6.579c-1.833,2.38-3.13,5.009-4.236,7.793c-0.511,1.295-0.961,2.613-1.358,3.948    c-0.594,1.602-1.135,3.224-1.509,4.892c-0.826,3.711-1.578,7.464-2.091,11.238c-1.899-1.004-3.765-2.065-5.58-3.213    c-2.547-1.599-5.047-3.255-7.455-5.037c-2.3-1.842-4.561-3.733-6.811-5.648c-2.344-1.993-4.365-4.267-6.309-6.636    c-1.057-1.413-2.119-2.836-3.007-4.357c-1.215-2.08-2.326-4.159-3.414-6.306c-1.355-3.291-2.596-6.614-3.427-10.078    c-0.883-3.625-1.579-7.251-2.145-10.928c-0.537-5.079-0.9-10.158-0.866-15.271c0.012-2.689-0.012-5.389,0.191-8.067    c0.187-2.443,0.431-4.867,0.713-7.297c0.569-3.496,1.164-6.979,2.083-10.408c0.999-3.724,2.046-7.448,3.058-11.173    c1.036-3.795,2.058-7.603,3.248-11.351c1.139-3.555,2.399-7.044,3.736-10.519c1.071-2.383,2.171-4.71,3.534-6.96    c1.202-1.979,2.64-3.814,4.044-5.662c2.95-3.592,5.96-7.083,9.139-10.482c1.463-1.547,2.986-3.035,4.485-4.546    c2.29-2.288,4.631-4.598,7.123-6.665c1.005-0.712,2.04-1.32,3.145-1.903c0.733-0.38,1.295-0.953,1.715-1.617    c2.323-0.001,4.614-0.432,6.859-1.043c0.238-0.064,0.476-0.132,0.714-0.201c-0.024,0.903-0.033,1.807-0.012,2.712    c0.096,3.7,0.916,7.199,2.666,10.459c1.88,3.498,5.497,5.783,9.233,6.77c4.045,1.07,8.079-0.298,11.732-1.951    c1.571-0.714,2.987-1.868,4.331-2.916c0.862-0.669,1.682-1.368,2.475-2.1c0.321,0.851,0.692,1.689,1.107,2.516    c1.571,3.106,4.01,5.521,6.818,7.52c1.225,0.868,2.761,1.381,4.165,1.892c0.667,0.191,1.344,0.31,2.035,0.369    c1.32,0.178,2.498,0.297,3.831,0.262c1.642-0.036,3.343-0.393,4.949-0.714c1.892-0.369,3.867-1.119,5.58-1.987    c3.487-1.76,6.187-4.391,8.507-7.484c2.451-3.272,4.343-6.877,5.878-10.65c0.833-2.023,1.535-4.057,2.082-6.176    c0.571-2.177,0.809-4.462,1.083-6.687c0.726-5.818,0.928-11.696,1.19-17.537c0.17-3.805,0.19-7.615,0.319-11.42    c0.841,1.458,1.694,2.914,2.675,4.264c1.666,2.297,3.414,4.45,5.306,6.556c1.784,1.975,3.688,3.856,5.569,5.735    c3.891,3.891,8.377,7.175,12.969,10.173c4.462,2.903,9.043,5.533,13.825,7.865c5.081,2.475,10.352,4.296,15.777,5.831    c5.521,1.571,11.315,2.212,17.003,2.855c5.105,0.584,10.232,0.785,15.372,0.857c2.689,0.024,5.33-0.047,7.996-0.405    c3.082-0.405,6.105-0.953,9.126-1.666c2.546-0.594,5.044-1.273,7.52-2.106c2.844-0.963,5.592-2.213,8.281-3.546    c4.58-2.273,8.972-4.854,13.195-7.734c4.545-3.082,8.971-6.271,13.076-9.911c0.556-0.495,1.087-1.021,1.625-1.537    c-0.301,2.204-0.561,4.415-0.764,6.624c-0.298,3.307-0.047,6.591,0.464,9.863c0.249,1.63,0.584,3.213,1.024,4.795    c0.452,1.677,1.225,3.284,1.951,4.854c1.344,2.916,3.582,5.533,5.843,7.793c1.701,1.702,3.629,3.13,5.496,4.641    c1.606,1.285,3.106,2.689,4.915,3.712c1.154,0.643,2.475,1.166,3.759,1.486c2.141,0.547,4.272,0.167,6.39-0.249    c1.618-0.321,3.26-1.297,4.688-2.118c1.559-0.892,2.974-2.118,4.355-3.272c1.707-1.433,3.239-3.182,4.617-4.987    c1.586,1.458,3.421,2.584,5.461,3.44c1.642,0.69,3.319,1.119,5.105,1.237c1.737,0.119,3.355-0.119,5.08-0.381    c1.618-0.238,3.213-1.095,4.641-1.845c1.523-0.821,2.903-2.118,4.188-3.26c2.392-2.129,4.224-4.986,5.819-7.734    c1.618-2.796,2.772-6.009,3.688-9.103c0.433-1.453,0.79-2.929,1.091-4.418c0.475,0.051,0.95,0.088,1.419,0.134    c1.024,0.107,2.535-0.071,3.51-0.333c1.142-0.297,2.214-0.679,3.296-1.178c0.642-0.298,1.205-0.707,1.802-1.071    c2.627,2.192,4.949,4.688,7.252,7.214c2.567,2.821,5.093,5.652,7.484,8.625c3.889,5.444,7.327,11.131,10.661,16.922    c3.127,5.416,5.991,10.917,8.515,16.638c1.886,4.966,3.563,9.967,5.06,15.059c1.515,5.196,2.471,10.6,3.392,15.927    c0.453,3.768,0.79,7.533,0.832,11.344C460.667,369.618,460.443,373.847,459.978,378.119z" fill="#04c4d9"/>
	</g>
</g>
<g>
	<g>
		<path d="M236.076,205.173c-0.381-0.928-0.773-1.855-1.226-2.747c-0.643-1.273-1.571-2.404-2.51-3.451    c-1.725-1.904-4.319-3.177-6.794-3.736c-0.692-0.154-1.406-0.225-2.124-0.225c-1.223,0-2.457,0.206-3.611,0.559    c-1.107,0.333-2.153,0.785-3.201,1.285c-0.714,0.333-1.594,1.059-2.166,1.571c-0.333,0.31-0.654,0.594-0.975,0.916    c-1.797,1.772-3.153,3.927-3.558,6.437c-0.214,1.368-0.357,2.713-0.178,4.081c0.12,0.904,0.227,1.796,0.393,2.689    c0.476,2.618,3.605,4.069,5.997,3.402c1.214-0.333,2.273-1.142,2.915-2.236c0.702-1.202,0.738-2.427,0.488-3.759    c-0.012-0.07-0.024-0.139-0.036-0.208c-0.053-0.637-0.065-1.265-0.028-1.905c0.037-0.183,0.075-0.363,0.12-0.546    c0.042-0.075,0.085-0.147,0.129-0.219c0.441-0.485,0.891-0.941,1.371-1.378c0.293-0.192,0.591-0.37,0.909-0.537    c0.544-0.198,1.088-0.371,1.648-0.507c0.311,0.072,0.613,0.153,0.915,0.249c0.282,0.146,0.556,0.304,0.829,0.476    c0.287,0.26,0.558,0.531,0.816,0.821c0.361,0.542,0.675,1.099,0.963,1.686c0.252,0.67,0.482,1.342,0.68,2.032    c0.286,0.916,0.345,1.904,0.714,2.796c0.215,0.797,0.619,1.488,1.202,2.07c0.88,0.88,2.094,1.381,3.331,1.381    c2.475,0,4.854-2.141,4.712-4.712C237.694,209.29,236.885,207.172,236.076,205.173z" fill="#04c4d9"/>
	</g>
</g>
<g>
	<g>
		<path d="M277.701,215.083c-0.059-0.679-0.144-1.333-0.31-1.987c-0.178-0.69-0.56-1.403-0.857-2.07    c-0.607-1.332-2.32-2.118-3.712-2.118c-1.486,0-2.962,0.809-3.7,2.118c-0.381,0.679-0.69,1.333-0.964,2.07    c-0.297,0.797-0.381,1.618-0.464,2.463c-0.068,0.741-0.042,1.483-0.074,2.231c-0.112,0.495-0.248,0.979-0.403,1.465    c-0.161,0.329-0.333,0.647-0.526,0.962c-0.202,0.212-0.413,0.41-0.631,0.603c-0.331,0.223-0.669,0.421-1.024,0.603    c-0.325,0.116-0.649,0.219-0.982,0.303c-0.439-0.001-0.87-0.015-1.304-0.043c-1.301-0.234-2.538-0.571-3.782-1.036    c-0.998-0.49-1.928-1.074-2.822-1.721c-0.289-0.26-0.568-0.527-0.83-0.814c-0.07-0.11-0.136-0.222-0.199-0.337    c-0.102-0.331-0.184-0.66-0.253-0.993c-0.052-1.013-0.032-2.033-0.009-3.056c0.047-1.999-1.701-3.665-3.665-3.665    c-2.046,0-3.629,1.666-3.676,3.665c-0.036,1.381-0.119,2.772-0.012,4.152c0.144,1.87,0.584,3.62,1.619,5.214    c0.607,0.916,1.357,1.713,2.129,2.487c2.654,2.642,6.234,4.177,9.887,4.854c1.107,0.202,2.214,0.273,3.343,0.249    c1.784-0.036,3.51-0.797,5.105-1.547c1.32-0.631,2.546-1.689,3.57-2.725c1.071-1.071,1.916-2.475,2.535-3.856    c0.654-1.476,1.237-2.974,1.642-4.533C277.571,217.07,277.784,216.058,277.701,215.083z M255.599,218.519l0.002,0.002    c0.052,0.068,0.106,0.135,0.159,0.204C255.704,218.658,255.651,218.589,255.599,218.519z" fill="#04c4d9"/>
	</g>
</g>
<g>
	<g>
		<path d="M313.577,209.547c-0.297-1.273-0.571-2.546-0.892-3.819c-0.536-2.058-1.511-4.152-2.559-6.009    c-0.951-1.701-2.392-3.13-4.022-4.201c-1.63-1.083-3.367-1.725-5.318-1.975c-0.44-0.057-0.88-0.085-1.319-0.085    c-1.473,0-2.934,0.314-4.309,0.883c-1.202,0.488-1.999,0.94-3.022,1.749c-0.951,0.773-1.737,1.666-2.439,2.677    c-0.797,1.154-1.534,2.332-2.165,3.593c-1.095,2.153-2.224,4.414-2.38,6.865c-0.096,1.344,0.047,2.713,0.154,4.057    c0.107,1.393,0.476,2.594,1.487,3.606c0.964,0.951,2.261,1.5,3.617,1.5c2.618,0,5.306-2.332,5.105-5.105    c-0.087-1.089-0.181-2.193-0.151-3.289c0.112-0.394,0.243-0.778,0.386-1.163c0.707-1.505,1.497-2.925,2.435-4.297    c0.173-0.19,0.35-0.371,0.533-0.547c0.047-0.026,0.095-0.053,0.142-0.081c0.294-0.094,0.587-0.174,0.89-0.244    c0.001,0,0.004,0,0.006,0c0.069,0.02,0.138,0.038,0.206,0.057c0.332,0.178,0.649,0.372,0.961,0.584    c0.05,0.049,0.1,0.097,0.148,0.147c0.392,0.606,0.724,1.24,1.032,1.89c0.238,0.67,0.419,1.342,0.555,2.031    c0.072,0.88,0.103,1.752,0.055,2.638c-0.072,1.178-0.096,2.285,0.286,3.451c0.762,2.368,2.796,4.081,5.354,4.081    c2.392,0,4.795-1.689,5.354-4.081C314.112,212.749,313.993,211.237,313.577,209.547z" fill="#04c4d9"/>
	</g>
</g>
<g>
	<g>
		<path d="M299.364,234.094c-0.393-1.428-1.357-2.666-2.63-3.414c-0.881-0.517-1.897-0.784-2.912-0.784    c-0.505,0-1.012,0.066-1.502,0.2c-2.023,0.559-3.332,2.082-3.998,3.998c-0.164,0.473-0.338,0.945-0.52,1.415    c-1.243,2.68-2.78,5.152-4.497,7.543c-1.642,2.046-3.382,3.94-5.365,5.685c-1.701,1.211-3.477,2.217-5.386,3.122    c-1.987,0.794-3.979,1.459-6.083,1.828c-3.114,0.275-6.236,0.122-9.339-0.16c-1.628-0.23-3.246-0.516-4.826-0.991    c-1.782-0.541-3.504-1.225-5.225-1.936c-2.447-1.045-4.77-2.264-6.926-3.8c-2.164-1.844-4.08-3.904-5.875-6.115    c-1.144-1.579-2.073-3.196-2.904-4.985c-0.88-1.879-3.558-2.344-5.235-1.368c-0.857,0.499-1.5,1.333-1.76,2.285    c-0.286,1.07-0.059,1.987,0.393,2.95c0.987,2.141,2.023,4.235,3.248,6.271c1.355,2.246,3.044,4.411,4.841,6.327    c3.844,4.117,8.924,6.306,14.016,8.448c4.914,2.07,10.34,2.701,15.611,3.165c1.083,0.095,2.153,0.142,3.236,0.191    c2.606,0.107,5.188-0.44,7.698-1.083c1.071-0.273,2.177-0.667,3.189-1.094c1.654-0.679,3.296-1.357,4.854-2.224    c4.14-2.273,7.412-5.735,10.315-9.399c1.606-2.046,3.058-4.165,4.319-6.437c0.953-1.713,1.833-3.462,2.678-5.223    C299.471,237.08,299.793,235.677,299.364,234.094z" fill="#04c4d9"/>
	</g>
</g>
<g>
</g>
<g>
</g>
<g>
</g>
<g>
</g>
<g>
</g>
<g>
</g>
<g>
</g>
<g>
</g>
<g>
</g>
<g>
</g>
<g>
</g>
<g>
</g>
<g>
</g>
<g>
</g>
<g>
</g>
</svg>
